<svg xmlns="http://www.w3.org/2000/svg" data-name="Layer 1" viewBox="0 0 128 128">
<path d="M112.137 46.498H92.405a12.038 12.038 0 00-23.965-.122l-.012.122h-19.8A12.075 12.075 0 0036.77 35.556a10.53 10.53 0 00-3.03.351 11.97 11.97 0 00-2.75 1.058 12.16 12.16 0 00-4.29 3.844 12.024 12.024 0 00-2.048 5.689H4.921a31.304 31.304 0 014.607-15.392 32.078 32.078 0 0111.569-11.179 31.723 31.723 0 0115.542-4.073h.092a31.675 31.675 0 0121.066 8.083l.73.655.732-.655a31.734 31.734 0 0152.878 22.56z"/>
<path d="M24.644 15.854l-.407.158A34.123 34.123 0 005.06 35.19l-.158.407V15.854zM123.099 80.425a31.778 31.778 0 01-30.644 31.721V92.413a12.04 12.04 0 008.8-18.845q-.129-.185-.263-.364l-.657-.875-.876.656a31.746 31.746 0 01-50.761-24.298h19.728a12.04 12.04 0 0023.979 0h19.732a31.888 31.888 0 01-.838 6.253l-.156.66.521.433A31.668 31.668 0 01123.1 80.425z"/>
</svg>